# File generated by ImageToStl.com - Free Image and 3D model conversion tools

mtllib lowpoly-stick.mtl

# Stick_0
o obj1
v -31.54399812 358.51430511 9.70533434
v -31.54399812 358.51430511 -51.72478436
v -35.64745677 81.18127251 -52.0418529
v -35.64745677 81.18127251 17.37951569
v -35.64745677 -12.00071716 18.53545625
v 35.64745677 -12.00071716 18.53545625
v 35.64745677 81.18127251 17.37951569
v -35.64745677 -12.00071716 -50.8859166
v 35.64745677 -12.00071716 -50.8859166
v 35.64745677 81.18127251 -52.0418529
v -29.38996464 793.49895477 -56.60077816
v 29.38996464 793.49895477 -56.60077816
v 30.07959649 488.32884979 -54.03914653
v -30.07959649 488.32884979 -54.03914653
v 31.54399812 358.51430511 -51.72478436
v 31.54399812 358.51430511 9.70533434
v -22.75429023 1109.20598602 -5.82681291
v -22.75429023 1109.20598602 -50.13948146
v -26.92922738 898.44072723 -54.20470333
v -26.92922738 898.44072723 -1.76158677
v 29.38996464 793.49895477 0.63448353
v 30.07959649 488.32884979 4.53913797
v -29.38996464 793.49895477 0.63448353
v -30.07959649 488.32884979 4.53913797
v -13.07646119 1378.99077606 -40.7159701
v 13.07646119 1378.99077606 -40.7159701
v 19.67380456 1172.62334442 -47.1399459
v -19.67380456 1172.62334442 -47.1399459
v 22.75429023 1109.20598602 -5.82681291
v 26.92922738 898.44072723 -1.76158677
v 22.75429023 1109.20598602 -50.13948146
v 26.92922738 898.44072723 -54.20470333
v -13.07646119 1378.99077606 -15.25032
v 13.07646119 1378.99077606 -15.25032
v 19.67380456 1172.62334442 -8.82634846
v -19.67380456 1172.62334442 -8.82634846
v -9.68772483 546.67913055 -106.25397949
v 9.68772483 546.67913055 -106.25397949
v -9.23798232 583.73711395 -95.27680786
v 9.23798232 583.73711395 -95.27680786
v -8.55701749 1207.65373993 -76.6301676
v 8.55701749 1207.65373993 -76.6301676
v -7.39856371 1229.12212372 -68.81011373
v 7.39856371 1229.12212372 -68.81011373
v 6.35029744 997.20561981 98.69668388
v -6.35029744 997.20561981 98.69668388
v 5.39282331 1024.34734344 88.98837185
v -5.39282331 1024.34734344 88.98837185
vn -0.99981 0.01933 0
vn 0 0.01665 0.99986
vn -1 0 0
vn 0 -1 0
vn 1 0 0
vn 0 -0.01665 -0.99986
vn 0 -0.01127 -0.99994
vn 0.99981 0.01933 0
vn 0 0.00153 -1
vn 0 0.03712 0.99931
vn -0.99967 0.02588 0
vn 1 0.00295 0
vn -1 0.00295 0
vn 0 0.01717 0.99985
vn 0 0.04175 -0.99913
vn 0 0.02588 0.99967
vn 0 0.02588 -0.99967
vn 0.99967 0.02588 0
vn 0 1 0
vn 0.99913 0.04175 0
vn -0.99913 0.04175 0
vn 0 0.04175 0.99913
vn 0 0.05334 0.99858
vn -0.99989 0.01474 0
vn 0.99989 0.01474 0
vn 0 -0.36252 -0.93198
vn 0 0.36947 -0.92924
vn -0.94391 0.03702 -0.32813
vn 0 0.50182 0.86497
vn 0.94391 0.03702 -0.32813
vn 0 0.06336 0.99799
vn -0.99799 0.06336 0
vn 0.99799 0.06336 0
vn 0 -0.3397 -0.94053
vn 0 0.43924 -0.89837
vn -0.96024 0.1068 -0.25795
vn 0 0.45773 0.88909
vn 0.96024 0.1068 -0.25795
vn 0.99953 0.03063 0
vn 0 0.03063 -0.99953
vn 0 -0.54271 0.83992
vn -0.99953 0.03063 0
vn 0 0.43281 0.90148
vn 0 0.69532 -0.7187
vn 0.98602 0.05279 0.15802
vn -0.98602 0.05279 0.15802
usemtl mat0
f 1//1 2//1 3//1
f 3//1 4//1 1//1
f 4//2 5//2 6//2
f 6//2 7//2 4//2
f 3//3 8//3 5//3
f 5//3 4//3 3//3
f 6//4 5//4 8//4
f 8//4 9//4 6//4
f 7//5 6//5 9//5
f 9//5 10//5 7//5
f 10//6 9//6 8//6
f 8//6 3//6 10//6
f 11//7 12//7 13//7
f 13//7 14//7 11//7
f 15//8 16//8 7//8
f 7//8 10//8 15//8
f 2//9 15//9 10//9
f 10//9 3//9 2//9
f 16//10 1//10 4//10
f 4//10 7//10 16//10
f 17//11 18//11 19//11
f 19//11 20//11 17//11
f 12//12 21//12 22//12
f 22//12 13//12 12//12
f 23//13 11//13 14//13
f 14//13 24//13 23//13
f 21//14 23//14 24//14
f 24//14 22//14 21//14
f 25//15 26//15 27//15
f 27//15 28//15 25//15
f 29//16 17//16 20//16
f 20//16 30//16 29//16
f 18//17 31//17 32//17
f 32//17 19//17 18//17
f 31//18 29//18 30//18
f 30//18 32//18 31//18
f 33//19 34//19 26//19
f 26//19 25//19 33//19
f 26//20 34//20 35//20
f 35//20 27//20 26//20
f 33//21 25//21 28//21
f 28//21 36//21 33//21
f 34//22 33//22 36//22
f 36//22 35//22 34//22
f 22//23 24//23 1//23
f 1//23 16//23 22//23
f 24//24 14//24 2//24
f 2//24 1//24 24//24
f 13//25 22//25 16//25
f 16//25 15//25 13//25
f 37//26 38//26 15//26
f 15//26 2//26 37//26
f 39//27 40//27 38//27
f 38//27 37//27 39//27
f 39//28 37//28 2//28
f 2//28 14//28 39//28
f 40//29 39//29 14//29
f 14//29 13//29 40//29
f 38//30 40//30 13//30
f 13//30 15//30 38//30
f 35//31 36//31 17//31
f 17//31 29//31 35//31
f 36//32 28//32 18//32
f 18//32 17//32 36//32
f 27//33 35//33 29//33
f 29//33 31//33 27//33
f 41//34 42//34 31//34
f 31//34 18//34 41//34
f 43//35 44//35 42//35
f 42//35 41//35 43//35
f 43//36 41//36 18//36
f 18//36 28//36 43//36
f 44//37 43//37 28//37
f 28//37 27//37 44//37
f 42//38 44//38 27//38
f 27//38 31//38 42//38
f 32//39 30//39 21//39
f 21//39 12//39 32//39
f 19//40 32//40 12//40
f 12//40 11//40 19//40
f 45//41 46//41 23//41
f 23//41 21//41 45//41
f 20//42 19//42 11//42
f 11//42 23//42 20//42
f 47//43 48//43 46//43
f 46//43 45//43 47//43
f 48//44 47//44 30//44
f 30//44 20//44 48//44
f 47//45 45//45 21//45
f 21//45 30//45 47//45
f 46//46 48//46 20//46
f 20//46 23//46 46//46
# Vertices: 48, normals: 46, texture coordinates: 0, faces: 92

